<?xml version="1.0" encoding="UTF-8"?>
<svg id="Layer_2" data-name="Layer 2" xmlns="http://www.w3.org/2000/svg" xmlns:xlink="http://www.w3.org/1999/xlink" viewBox="0 0 1213.76 307.76">
  <defs>
    <style>
      .cls-1 {
        letter-spacing: 0em;
      }

      .cls-2 {
        letter-spacing: 0em;
      }

      .cls-3, .cls-4, .cls-5, .cls-6, .cls-7 {
        fill: #fff;
      }

      .cls-8 {
        fill-rule: evenodd;
      }

      .cls-8, .cls-9, .cls-10 {
        fill: #191919;
      }

      .cls-4, .cls-11 {
        font-family: TitilliumWeb-Regular, 'Titillium Web';
        font-size: 34px;
      }

      .cls-12 {
        letter-spacing: 0em;
      }

      .cls-9 {
        stroke: #191919;
        stroke-linecap: round;
        stroke-width: 2px;
      }

      .cls-9, .cls-5, .cls-13 {
        stroke-miterlimit: 10;
      }

      .cls-14 {
        letter-spacing: 0em;
      }

      .cls-5 {
        stroke: url(#linear-gradient-3);
      }

      .cls-5, .cls-13 {
        stroke-width: 6px;
      }

      .cls-13 {
        fill: url(#linear-gradient);
        stroke: url(#linear-gradient-2);
      }

      .cls-6 {
        font-family: TitilliumWeb-Bold, 'Titillium Web';
        font-size: 25px;
        font-weight: 700;
      }

      .cls-15 {
        letter-spacing: 0em;
      }

      .cls-11 {
        fill: #c71c21;
      }

      .cls-16 {
        letter-spacing: 0em;
      }

      .cls-17 {
        letter-spacing: 0em;
      }

      .cls-7 {
        font-family: TitilliumWeb-Black, 'Titillium Web';
        font-size: 93px;
        font-weight: 800;
      }
    </style>
    <linearGradient id="linear-gradient" x1="3" y1="112.59" x2="1210.76" y2="112.59" gradientUnits="userSpaceOnUse">
      <stop offset=".36" stop-color="#c71c21"/>
      <stop offset="1" stop-color="#ff8166"/>
    </linearGradient>
    <linearGradient id="linear-gradient-2" x1="0" x2="1213.76" xlink:href="#linear-gradient"/>
    <linearGradient id="linear-gradient-3" x1="0" y1="255.53" x2="1213.76" y2="255.53" xlink:href="#linear-gradient"/>
  </defs>
  <g id="Layer_1-2" data-name="Layer 1">
    <rect class="cls-13" x="3" y="3" width="1207.76" height="219.18"/>
    <text class="cls-6" transform="translate(806.11 79.01)"><tspan x="0" y="0">A lightweight website to ma</tspan><tspan class="cls-16" x="303.2" y="0">k</tspan><tspan x="315.85" y="0">e TTC </tspan><tspan x="-38.75" y="30">cuts a</tspan><tspan class="cls-1" x="25.4" y="30">cc</tspan><tspan x="47.5" y="30">essible to the ones who would </tspan><tspan x="141.42" y="60">get af</tspan><tspan class="cls-1" x="203.82" y="60">f</tspan><tspan x="212.65" y="60">ected the most</tspan></text>
    <text class="cls-4" transform="translate(40.25 70.04)"><tspan x="0" y="0">p</tspan><tspan class="cls-14" x="17.92" y="0">r</tspan><tspan x="29.34" y="0">oject</tspan></text>
    <text class="cls-7" transform="translate(43.01 148.89)"><tspan x="0" y="0">Arizona</tspan></text>
    <path class="cls-5" d="m3,206.29h1207.76v55.59c0,23.67-19.21,42.88-42.88,42.88H45.88c-23.67,0-42.88-19.21-42.88-42.88v-55.59h0Z"/>
    <text class="cls-11" transform="translate(40.25 262.06)"><tspan x="0" y="0">A p</tspan><tspan class="cls-14" x="45.66" y="0">r</tspan><tspan x="57.08" y="0">oject </tspan><tspan class="cls-15" x="133.89" y="0">b</tspan><tspan x="151.47" y="0">y De</tspan><tspan class="cls-14" x="214.47" y="0">r</tspan><tspan x="225.89" y="0">ek Song (t</tspan><tspan class="cls-12" x="367.33" y="0">w</tspan><tspan class="cls-2" x="393.07" y="0">o</tspan><tspan x="410.88" y="0">toqu</tspan><tspan class="cls-17" x="476.71" y="0">e</tspan><tspan x="493.71" y="0">) </tspan></text>
    <g id="Page-1">
      <g id="logo-dark">
        <path id="ttc" class="cls-8" d="m1033.14,234.61l-2.45,6.17-1.32-.52,1.68-4.23h-39.68l3.11,8.49h-4.98l4.67,9.62h-26.41l7.68,11.46h25.32l.24.33.1.13.18.21.18.2.14.15.16.16.18.18.2.19.22.19.24.2c1.51,1.24,4.04,2.74,7.51,2.74h41.66v1.42h-41.66c-3.82,0-6.6-1.57-8.3-2.94l-.25-.21-.24-.21s-.08-.07-.11-.1l-.21-.2-.28-.28-.17-.17-.15-.16-.19-.22-.15-.18h-25.36l-9.59-14.3h26.8l-4.67-9.62h5.21l-3.11-8.49h43.81Zm23.34,17.53l-5.89,3.35c-2.41-2.27-4.07-2.54-5.61-.96-1.39,1.43-1.35,4.38.08,5.8,1.5,1.48,3.24,1.15,5.53-1.1l5.91,3.35c-1.83,4.18-6.7,6.46-11.76,5.58-5.05-.87-8.83-5.1-9.03-10.11-.22-5.36,2.89-9.72,7.93-11.14,5.33-1.5,10.21.42,12.84,5.21h0Zm-52.4-10.34h8.6s0,5.08,0,5.08h4.75s0,6.6,0,6.6h-4.61v3.11c-.02.97,0,1.94.02,2.91.04,1.15.84,1.65,1.92,1.62.44-.02.88-.06,1.32-.13l1.05-.15c.12-.02.24-.03.37-.05v.68s.02,1.36.02,1.36c.01,1.14.01,2.27-.06,3.39-.03.47-.58,1.14-1.03,1.31-2.56.91-5.19,1.08-7.81.29-2.88-.87-4.36-3.07-4.47-6.64-.07-2.4-.06-4.81-.1-7.21,0-.01,0-.02,0-.04l-.02-.05-.1-.18s-.03-.05-.04-.07l-2.15-.19v-6.34s2.34-.28,2.34-.28v-5.01s0,0,0,0Zm17.22,0h8.58s0,5.05,0,5.05h4.8s0,6.7,0,6.7h-4.73s0,.69,0,.69l-.02,1.99c-.01,1.09,0,2.15.06,3.21.08,1.29,1.06,1.75,2.27,1.66.3-.02.6-.06.91-.11l1.27-.2.29-.04v.71s.02,1.41.02,1.41c.01,1.17.01,2.33-.06,3.48-.03.41-.6,1-1.05,1.15-2.56.9-5.2,1.07-7.83.29-2.72-.81-4.22-2.86-4.38-5.95-.03-.67-.05-1.35-.05-2.02v-1.35s0-.68,0-.68v-.67s0-2.04,0-2.04v-1.41l-2.33-.29v-6.33s2.25-.26,2.25-.26v-5s0,0,0,0Zm-25.6,14.18l4.24,7.57h-23.01l-5.45-7.57h24.22,0Z"/>
        <path id="riders" class="cls-8" d="m1100.51,240.08h8.61s.03,27.44.03,27.44h-8.54s-.11-1.82-.11-1.82c-.3.15-.59.31-.88.48l-.86.5c-.86.49-1.71.95-2.62,1.19-4.04,1.03-7.99-1.13-9.71-5.21-1.59-3.76-1.53-7.57.27-11.26,2.53-5.19,8.28-6.52,12.88-3.1l.21.16.16.11.59.39v-8.88h0Zm65.41,7.19c.53.15,1.05.36,1.59.59l1.14.49c.2.09.41.17.63.26l-2.71,5.12c-.22-.07-.44-.15-.66-.23l-.44-.16-.44-.17-.87-.34-.44-.16c-1.6-.58-3.21-1-4.96-.47l-.15.66c.72.29,1.42.62,2.16.87.42.14.84.27,1.26.4l1.27.38c.85.25,1.69.52,2.5.85,2.47.98,3.87,2.8,3.83,5.55-.04,2.85-1.23,5.1-3.93,6.13-5.53,2.11-10.72.89-15.87-1.91l2.91-4.86.48.21,1.18.52.47.2.24.1.47.19c1.96.77,3.94,1.27,6.08.72l.19-.63-.29-.14-.58-.29c-.29-.15-.58-.28-.88-.38-.42-.14-.85-.28-1.27-.41l-1.28-.39c-1.07-.32-2.13-.65-3.15-1.07-2.24-.92-3.57-2.61-3.61-5.15-.05-2.71.97-4.85,3.41-6.1,3.82-1.96,7.78-1.49,11.71-.36h0Zm-41.73-.71c5.91,1.13,9.14,5.87,8.45,12.68h-13.01c.82,3.29,3.94,3.56,7.98.74l1.71,1.34.44.34c.74.58,1.47,1.17,2.2,1.75-2.15,4.19-8.98,5.93-14.46,3.73-5.02-2.01-7.51-7.58-5.9-13.18,1.54-5.36,6.87-8.49,12.59-7.4h0Zm25.54.06v8.87s-.39.08-.39.08l-.38.08-.54.12-.34.08-.33.08-.31.08-.15.04-.29.09-.27.09s-.09.03-.13.05l-.25.1c-.12.05-.24.1-.36.15l-.22.11c-1.25.63-1.86,1.53-2.14,3.07l-.04.27s-.01.09-.02.14l-.04.29c0,.05-.01.1-.02.15l-.03.31v.16s-.03.33-.03.33l-.02.35v.36s-.02.38-.02.38v.6s0,4.52,0,4.52h-8.63s-.02-20.59-.02-20.59h8.55s.17,3.55.17,3.55c1.48-2.66,3.31-4.13,6.24-3.91Zm-75.04.42h8.48s.02,20.52.02,20.52h-8.48s-.02-20.52-.02-20.52Zm-1.82-.33v8.84c-.08.06-.18.17-.28.16-4.41-.04-6.04,2.37-6.07,6.67,0,.56,0,1.12,0,1.69v3.47s-8.5,0-8.5,0l-.02-20.54h8.41s0,3.14,0,3.14l.25-.3.25-.29c.08-.1.17-.19.25-.28l.25-.27c1.41-1.48,3.04-2.48,5.46-2.3h0Zm24.38,6.8c-2,0-3.51,1.7-3.46,3.87.05,2.11,1.53,3.62,3.54,3.58,1.99-.04,3.39-1.6,3.37-3.74-.02-2.11-1.51-3.71-3.44-3.71h0Zm24.75-1.15c-1.47-.02-2.41,1.04-2.58,3.01h5.19c-.17-1.96-1.11-3-2.62-3.01Zm-47.44-12.26h8.8s0,5.22,0,5.22h-8.8s0-5.22,0-5.22h0Z"/>
      </g>
    </g>
    <g id="b">
      <g id="c">
        <g id="d">
          <path class="cls-10" d="m846.32,242.1c-.25-.02-.52.04-.75.17-.55.32-1.11.63-1.68.93-2.18,1.14-4.44,2.1-6.74,2.96-1.19.44-2.4.82-3.59,1.26-.9.33-1.78.69-2.63,1.11-.62.31-.88,1.06-.58,1.68s1.06.88,1.68.58c.54-.26,1.09-.51,1.65-.72.68-.26,1.36-.49,2.05-.72.89-.3,1.78-.58,2.67-.9,1.65-.6,3.29-1.25,4.88-1.98,1.23-.57,2.44-1.2,3.62-1.88.63-.37.85-1.17.48-1.81-.23-.4-.63-.63-1.05-.66h0Z"/>
          <path class="cls-10" d="m837.44,246.89c-.69.04-1.22.64-1.18,1.33.03.46.03.92.06,1.37.02.37.07.73.13,1.09.15.86.38,1.71.53,2.57.09.48.15.97.19,1.46.07.87.08,1.74.11,2.6.02.45.05.9.07,1.34.03.75.05,1.51.06,2.26.04,2.6,0,5.19-.02,7.79,0,.73.59,1.33,1.32,1.33.73,0,1.33-.59,1.33-1.32,0-2.62.04-5.23-.02-7.85-.02-.78-.05-1.56-.09-2.33-.03-.5-.07-1.01-.09-1.51-.04-.81-.07-1.62-.13-2.42-.05-.61-.13-1.21-.24-1.81-.17-.89-.41-1.76-.56-2.66-.11-.68-.1-1.37-.15-2.06-.04-.69-.64-1.22-1.33-1.18h0Z"/>
          <path class="cls-10" d="m851.23,257.3c-.62.02-1.16.46-1.27,1.09-.1.59-.2,1.18-.28,1.77-.11.82-.21,1.64-.3,2.47-.02-.04-.03-.08-.05-.11-.43-.83-1.38-1.46-2.33-1.43-.57.01-1.1.27-1.46.72-.18.23-.3.5-.39.78-.06.21-.1.43-.15.64-.1-.47-.21-.93-.34-1.39-.28-.95-.72-1.84-1.1-2.75-.27-.64-1-.94-1.64-.67-.48.2-.77.66-.77,1.15,0,.16.03.33.1.49.33.78.71,1.55.96,2.36.24.75.37,1.53.54,2.29.1.46.22.92.36,1.37.02.08.03.19.04.27.02.15.04.31.07.46.03.18.08.35.15.52.18.4.48.73.89.89.1.04.19.06.29.08.11.02.22.03.32.02.11,0,.22-.02.32-.04.15-.03.29-.08.43-.15.46-.23.78-.65,1-1.11.13-.29.22-.59.33-.89.04-.11.09-.22.12-.33.07-.21.12-.42.16-.63.03-.14.05-.28.07-.42.02.06.03.12.05.18.05.18.1.37.15.55.06.22.13.44.2.65.02.05.02.11.03.16.02.1.03.2.05.31.06.29.14.58.29.83.09.16.21.3.35.42.11.09.22.17.35.23.64.31,1.41.13,1.92-.35.41-.39.61-.93.77-1.46.08-.26.17-.52.23-.78.09-.4.13-.81.16-1.21.05-.59.12-1.17.19-1.75.14-1.23.3-2.46.52-3.68.13-.72-.35-1.41-1.08-1.54-.09-.02-.18-.02-.27-.02h0Z"/>
          <path class="cls-10" d="m858.07,257.44c-.14,0-.28.02-.41.06-.35.08-.66.27-.94.48-.08.06-.16.12-.24.18,0,0,0,0-.03,0-.02,0-.03.02-.05.03-.11,0-.23,0-.34.02-.35.05-.67.17-.95.39-.48.38-.79.94-.99,1.51-.13.36-.21.73-.25,1.11-.04.43-.03.86-.05,1.3-.02.31-.05.63-.06.94,0,.38.02.77.12,1.14.31,1.17,1.27,2.12,2.38,2.56.4.16.83.26,1.25.26.14,0,.28-.01.43-.03.31-.05.61-.14.9-.27.18-.08.36-.18.53-.29,1.26-.84,1.89-2.38,2.12-3.82.04-.27.07-.55.09-.82.02-.31.02-.63.01-.94-.03-1.13-.35-2.34-1.27-3.07-.51-.41-1.16-.66-1.81-.72-.14-.01-.28-.02-.42-.01h0Zm.24,2.65c.07.01.14.04.2.06.05.02.1.05.14.08.04.04.07.09.09.13.04.08.08.17.1.26.08.28.1.58.1.87,0,.22,0,.45-.02.67-.05.66-.2,1.35-.53,1.93-.19.34-.48.68-.88.74-.08.01-.16,0-.23-.03-.12-.04-.24-.09-.35-.16-.25-.15-.49-.37-.6-.65-.04-.11-.05-.23-.06-.34,0-.11,0-.22,0-.33.02-.33.05-.66.06-.99,0-.26,0-.51.02-.77.02-.24.06-.45.14-.67.02-.07.06-.14.09-.21.06,0,.13,0,.19,0,.24.04.49.01.73-.09.16-.07.09-.04.16-.07.07-.03.13-.07.19-.11.13-.08.26-.17.38-.27.02-.01.05-.04.07-.05h0Z"/>
          <path class="cls-10" d="m874.05,245.26c-.51-.05-1.03.21-1.29.7-.19.35-.36.71-.56,1.06-.08.14-.16.27-.24.4-.09.14-.17.29-.26.42-.04.06-.08.13-.14.17-.1.08-.22.13-.33.17-.17.07-.35.13-.52.2-.18.07-.36.15-.54.22-.27.11-.54.2-.81.29-1.17.36-2.39.54-3.62.6-.37.02-.75.02-1.12.02-.27,0-.54-.01-.8-.02-.49,0-.99.03-1.48,0-.17-.01-.33-.04-.49-.07-.13-.08-.24-.18-.36-.28-.14-.11-.28-.22-.42-.33-.57-.39-1.35-.25-1.74.33-.15.21-.22.46-.22.7,0,.4.19.8.55,1.04.22.15.41.34.63.5.29.21.6.38.95.47.93.24,1.88.15,2.83.18,1.01.03,2.02.03,3.03-.06,1.41-.13,2.8-.43,4.12-.94.14-.06.29-.12.43-.17.54-.2,1.07-.39,1.53-.74.43-.33.72-.77,1-1.22.12-.19.24-.38.35-.58.21-.36.39-.74.59-1.11.35-.65.1-1.45-.54-1.79-.16-.09-.33-.13-.5-.15h0Z"/>
          <path class="cls-10" d="m875.05,255.84c-.15,0-.31,0-.46.03-.48.06-.94.21-1.32.51-.16.13-.31.27-.44.43-.21.26-.36.54-.49.84-.08.18-.14.35-.22.53-.02.05-.04.1-.06.14,0,.01,0,0-.06.11-.05.09-.08.19-.11.29-.07.1-.13.19-.19.29-.18.29-.32.59-.42.91-.17.58-.23,1.18-.28,1.77-.05.58-.09,1.17-.01,1.75.11.81.45,1.6.98,2.23.26.31.57.58.92.78.28.17.59.28.91.37.51.14,1.05.18,1.57.09.57-.1,1.1-.35,1.59-.64.19-.11.37-.24.55-.37.21-.15.42-.3.6-.49.32-.33.58-.72.85-1.09.32-.43.65-.87.9-1.34.46-.87.7-1.86.62-2.84-.09-1.27-.7-2.46-1.7-3.26-.35-.28-.73-.5-1.14-.67-.46-.19-.95-.31-1.44-.36-.22-.02-.45-.02-.68-.03-.15,0-.31,0-.47,0h0Zm.11,2.64c.24,0,.48,0,.71.01.69.05,1.33.37,1.7.96.42.68.36,1.54.03,2.24-.2.42-.49.8-.77,1.17-.11.15-.22.3-.33.45-.08.12-.17.24-.27.34-.05.05-.11.09-.17.14-.1.07-.19.14-.29.21-.2.13-.4.26-.62.34-.1.04-.2.08-.31.09-.17.02-.34-.02-.49-.06-.11-.03-.21-.07-.3-.15-.11-.1-.21-.2-.29-.33-.1-.15-.18-.32-.24-.5-.06-.2-.08-.41-.08-.61,0-.25.01-.49.03-.74.03-.33.05-.65.1-.98.03-.18.06-.36.13-.52.06-.15.17-.29.26-.42,0-.01.01-.02.02-.04.14-.11.25-.25.34-.41.04-.07.01-.04.04-.07.02-.03.04-.07.05-.1.03-.06.06-.13.09-.2.07-.16.13-.32.2-.48.04-.09.07-.18.12-.26.01-.03.03-.05.04-.07.02,0,.04,0,.06,0,.08,0,.16,0,.24,0h0Z"/>
          <path class="cls-10" d="m886.29,254.81c-.09,0-.19,0-.28,0-.09,0-.17.03-.26.06-.07.02-.13.05-.2.08-.34.17-.61.49-.74.85-.08,0-.16,0-.24,0-.25.01-.49.05-.72.12-.5.15-.94.47-1.3.84-.59.62-.95,1.41-1.14,2.24-.07.31-.11.63-.12.95,0,.16,0,.32,0,.48,0,.26,0,.52.04.78.05.42.21.83.48,1.16.1.12.21.22.34.31.15.11.31.19.48.25.18.06.37.1.56.12.27.03.55,0,.82-.04.24-.04.47-.11.69-.21.08-.04.16-.08.25-.12.02,1.44.04,2.88-.02,4.32-.02.42-.05.84-.09,1.26-.08.82-.21,1.64-.27,2.46-.09,1.04-.08,2.08-.16,3.11-.04.55-.09,1.11-.13,1.66-.01.23-.02.46-.04.68,0,.11-.05.22-.07.32-.04.16-.07.32-.1.48-.08.59.02,1.19.44,1.64.15.16.33.29.52.39.15.07.3.12.46.14.16.02.32.01.48-.02.53-.1.91-.47,1.2-.9.08-.12.15-.24.22-.36.03-.05.06-.1.09-.15.06-.08.12-.16.18-.24.09-.12.17-.24.26-.36.29-.42.56-.86.81-1.3.46-.81.85-1.65,1.25-2.49.24-.51.5-1.02.75-1.53.98-1.99,1.92-3.99,2.82-6.02.07-.17.11-.34.11-.51.01-.52-.28-1.01-.79-1.23-.67-.3-1.45,0-1.75.67-.66,1.48-1.34,2.96-2.04,4.42-.4.83-.81,1.65-1.21,2.48-.22.45-.44.91-.65,1.37-.06.12-.13.24-.19.37,0-.02,0-.04,0-.06.04-.87.04-1.74.13-2.6.11-1.09.27-2.19.32-3.29.1-2.07.02-4.14,0-6.21,0-.79,0-1.58,0-2.37.07-.41.11-.82.11-1.23,0-.2,0-.39-.01-.59-.01-.6,0-1.28-.43-1.76-.04-.05-.09-.1-.14-.14-.06-.05-.12-.1-.19-.14-.08-.05-.17-.09-.26-.12-.09-.03-.19-.05-.28-.06h0Zm-1.4,3.49h.07c0,.13,0,.25,0,.38-.1.43-.26.85-.53,1.2-.09.11-.18.21-.29.31-.1.09-.21.18-.33.25,0-.13-.01-.26,0-.38,0-.2.04-.39.08-.58.04-.17.09-.33.16-.49.05-.1.1-.2.16-.29.04-.05.08-.1.12-.14.04-.04.08-.08.12-.12.1-.09.14-.1.27-.11.02,0,.05,0,.07,0,.03,0,.06,0,.09,0h0Z"/>
          <path class="cls-10" d="m902.14,253.76c-.61.06-1.12.55-1.19,1.18-.1,1.04-.24,2.09-.59,3.08-.29.83-.74,1.58-1.25,2.3-.15.21-.29.42-.44.63-.12.17-.24.34-.41.47-.11.08-.24.14-.37.19-.27.08-.51.08-.74-.08-.06-.04-.12-.09-.18-.15-.07-.07-.13-.14-.19-.22-.3-.39-.5-.87-.65-1.34-.15-.48-.25-.97-.28-1.47-.06-.8.01-1.6.07-2.4.06-.69-.46-1.29-1.15-1.35-.69-.06-1.29.46-1.35,1.15-.07.92-.14,1.85-.08,2.78.05.69.17,1.37.37,2.03.16.53.38,1.06.65,1.54.27.48.61.93,1.04,1.3.6.52,1.36.82,2.15.83.47,0,.94-.09,1.37-.26.5-.19.94-.49,1.32-.86.38-.38.66-.83.97-1.26.31-.43.61-.87.87-1.34.29-.51.54-1.05.74-1.6.43-1.19.61-2.44.74-3.7.07-.73-.46-1.38-1.19-1.45-.09,0-.18,0-.27,0h0Z"/>
          <path class="cls-10" d="m910.37,252.37c-.17,0-.35,0-.52.03-.4.06-.78.22-1.13.42-.59.32-1.15.69-1.66,1.12-1,.83-1.84,1.86-2.41,3.03-.2.41-.37.84-.5,1.28-.09.31-.17.62-.25.93-.15.56-.29,1.12-.31,1.7-.02.74.16,1.47.47,2.13.14.3.3.59.52.84.25.29.56.51.88.72.15.1.31.2.47.29.42.23.86.41,1.32.53.49.13,1,.2,1.5.25.33.03.66.05.99.06.51,0,1.02-.03,1.52-.09,1.22-.15,2.41-.47,3.6-.76.35-.09.69-.17,1.04-.25.62-.14,1.04-.71,1.03-1.32,0-.09-.01-.18-.03-.27-.16-.71-.88-1.16-1.59-.99-.76.18-1.51.37-2.26.55-.85.21-1.71.4-2.58.46-.59.04-1.17.02-1.75-.05-.38-.04-.76-.11-1.12-.25-.23-.09-.45-.2-.65-.33-.11-.07-.22-.14-.32-.22-.03-.02-.05-.05-.08-.07-.08-.15-.16-.3-.22-.46-.04-.1-.07-.21-.09-.32.03-.01.06-.02.08-.03,1.54-.69,3.05-1.44,4.44-2.41.33-.23.67-.46.97-.73.35-.32.61-.72.79-1.16.18-.45.26-.92.31-1.4.04-.45.04-.9-.09-1.34-.09-.29-.24-.56-.43-.8-.36-.47-.85-.86-1.42-1.02-.17-.05-.34-.07-.51-.08h0Zm-.17,2.55s.07.06.1.1c0,0,0,0,0,.01.01.09,0,.18,0,.27,0,.08-.01.17-.02.25-.03.21-.06.49-.19.68-.04.06-.09.1-.14.15-.15.13-.31.24-.47.35-.21.15-.43.3-.65.44-.62.41-1.28.76-1.94,1.1.3-.68.72-1.31,1.24-1.85.41-.42.87-.8,1.37-1.11.17-.11.35-.22.53-.31.05-.03.11-.05.16-.07,0,0,0,0,.01,0h0Z"/>
          <g>
            <path class="cls-3" d="m867.29,250.54c.07.41.21.79.26,1.19.31,2.23.36,4.57.13,6.81-.08.82-.25,1.64-.32,2.46-.06.69-.04,1.4-.11,2.09-.08.69-.33,1.42-.21,2.11"/>
            <path class="cls-10" d="m867.03,266.46c-.6,0-1.13-.43-1.23-1.04-.12-.69,0-1.32.11-1.88.04-.21.08-.4.1-.57.04-.33.05-.68.06-1.05.01-.33.02-.67.05-1.01.04-.48.11-.95.18-1.41.06-.37.11-.73.14-1.08.21-2.13.17-4.38-.13-6.51-.02-.15-.06-.32-.11-.5-.05-.2-.11-.42-.15-.66-.11-.68.35-1.32,1.03-1.44.68-.11,1.32.35,1.44,1.03.02.14.06.29.1.45.06.23.12.49.16.77.32,2.33.37,4.79.14,7.11-.04.41-.1.81-.16,1.2-.07.43-.13.84-.16,1.25-.02.28-.03.57-.04.88-.01.4-.03.82-.07,1.25-.03.27-.08.52-.12.76-.07.39-.14.75-.1,1,.11.68-.35,1.32-1.02,1.44-.07.01-.14.02-.21.02Z"/>
          </g>
          <path class="cls-10" d="m860.64,243.81c-.42.04-.82.29-1.04.69-.3.56-.51,1.16-.62,1.79-.09.49-.11.98-.13,1.47-.02.39-.03.78-.06,1.16-.05.69.47,1.29,1.16,1.34s1.29-.47,1.34-1.16c.08-1.13.08-2.33.64-3.34.35-.64.11-1.45-.53-1.8-.24-.13-.5-.18-.76-.15h0Z"/>
          <path class="cls-10" d="m871.67,242.31c-.12,0-.24,0-.36.01-.49.07-.9.35-1.16.77-.03.05-.06.11-.09.16-.01.02-.03.06-.04.09h0s0,0,0,0c0,0,0,0,0,0-.01.02-.03.05-.04.07-.03.06-.05.1-.08.16,0,.02-.01.02-.02.04,0,0,0,.01,0,0-.05.07-.11.14-.17.21-.14.14-.3.27-.47.37-.32.2-.68.36-1.03.5-1.06.41-2.22.55-3.34.42-.37-.04-.74-.12-1.11-.22-.23-.06-.45-.14-.68-.22-.52-.18-1.05-.33-1.5-.66-.56-.41-1.34-.29-1.75.27-.15.21-.24.45-.24.69-.02.4.16.8.51,1.06.33.24.67.44,1.05.6.39.17.81.3,1.21.44.61.22,1.24.39,1.88.49,1.75.28,3.56.09,5.2-.58.84-.34,1.63-.78,2.25-1.44.24.39.42.81.59,1.23.27.68,1.04,1.01,1.72.74.51-.2.82-.69.83-1.2,0-.17-.03-.35-.09-.52-.11-.28-.23-.56-.36-.84-.11-.23-.22-.45-.35-.67-.16-.27-.34-.53-.53-.78-.15-.2-.31-.4-.49-.58-.35-.35-.8-.62-1.31-.65h0Z"/>
          <path class="cls-10" d="m861.79,234.96c-.11,0-.21.02-.31.04-.09.02-.17.05-.25.09-.05.02-.1.05-.15.08-.22.13-.39.31-.55.5-.11.14-.22.27-.32.42-.19.3-.33.62-.44.96-.07.21-.13.42-.19.63-.15.51-.28,1.01-.37,1.54-.21,1.25-.21,2.55.01,3.8.08.43.18.86.32,1.28.11.35.25.69.37,1.04.24.69,1,1.05,1.69.81s1.05-1,.81-1.69c-.16-.44-.34-.88-.46-1.34-.3-1.14-.37-2.35-.21-3.51.06-.42.16-.83.27-1.23.05-.16.09-.32.14-.48.04-.12.08-.24.14-.36.52-.06.97-.43,1.09-.97.02-.08.03-.17.03-.25,0-.57-.38-1.09-.95-1.23,0,0-.01,0-.02,0-.01,0-.03-.01-.04-.01-.03,0-.06-.02-.09-.03-.06-.02-.12-.03-.18-.04-.11-.01-.22-.03-.33-.03h0Z"/>
          <path class="cls-10" d="m863.38,234.87c-.52-.01-1.05.03-1.58.13-.6.11-1.01.63-1.02,1.21,0,.08,0,.17.02.25.13.68.78,1.13,1.47,1,1.45-.27,2.94.14,4.23.78.18.09.35.18.53.27.07.04.15.07.22.11.04.02.08.05.12.08.11.07.23.15.34.22.02.01.04.02.05.04.04.05.09.09.14.13.05.05.1.1.15.14s.1.1.15.14c0,0,0,0,0,0,0,0,.01.01.01.02,0,.01.01.02.02.03.02.02.03.04.04.07.06.1.11.2.16.3.08.19.16.38.24.57.06.14.12.27.18.41.41.96.68,1.98.96,2.99.2.7.93,1.11,1.64.91.7-.2,1.11-.93.91-1.64-.24-.83-.47-1.67-.76-2.48-.15-.4-.32-.79-.49-1.18-.12-.26-.22-.52-.34-.77-.13-.27-.28-.53-.46-.77-.06-.08-.12-.16-.19-.23-.11-.12-.23-.22-.35-.33-.07-.07-.15-.14-.23-.21-.06-.05-.11-.11-.17-.15-.06-.05-.13-.09-.19-.13-.08-.06-.17-.11-.26-.16-.13-.08-.26-.17-.4-.25-.2-.11-.4-.2-.6-.3-1.41-.7-2.96-1.19-4.54-1.22h0Z"/>
          <path class="cls-10" d="m862.04,230.34c-.17,0-.35,0-.52,0-.09,0-.19.02-.29.03-.05,0,0,0-.26.04-.22.04-.4.14-.57.27-.1.05-.21.09-.3.16-.69.44-1.11,1.18-1.26,1.96-.05.28-.08.56-.07.85.02,1.46.79,3.06,2.23,3.59.18.07.37.11.56.14.16.02.32.03.48.03s.32-.02.48-.04c.36-.06.72-.17,1.05-.34.21-.11.41-.25.59-.4.6-.52.98-1.25,1.12-2.03.07-.38.08-.77.06-1.15-.01-.26-.03-.52-.09-.77-.06-.26-.15-.51-.29-.73-.12-.2-.26-.38-.42-.55-.53-.56-1.24-.88-2-1.01-.17-.03-.34-.05-.52-.05h0Z"/>
          <path class="cls-10" d="m833.27,231.93c-.24,0-.49,0-.73,0-.66.04-1.32.21-1.89.56-.34.21-.66.48-.93.78-.85.91-1.28,2.11-1.44,3.32-.05.36-.07.72-.08,1.08,0,.24,0,.48,0,.72,0,.44,0,.87.05,1.31.04.41.12.81.25,1.19.24.75.62,1.45,1,2.15.24.44.48.89.74,1.33.37.63,1.18.84,1.81.47s.84-1.18.47-1.81c-.3-.51-.58-1.02-.86-1.54-.2-.36-.39-.72-.54-1.09-.08-.19-.14-.38-.19-.58-.09-.41-.09-.84-.09-1.26,0-.31-.01-.62,0-.93.02-.89.17-1.9.79-2.59.14-.16.31-.32.51-.41.21-.1.44-.12.67-.13.41-.02.82.02,1.23.04.69.03,1.4.03,2.07.2.5.13.98.33,1.43.56.74.38,1.44.84,2.15,1.28.38.24.78.47,1.15.72.2.13.38.28.57.42.11.09.23.17.34.26.39.54,1.15.69,1.71.31.36-.24.56-.63.56-1.04,0-.24-.07-.48-.21-.7-.14-.2-.3-.38-.49-.54-.12-.1-.25-.19-.38-.28-.23-.17-.45-.35-.68-.51-.4-.28-.82-.52-1.24-.78-.52-.32-1.04-.66-1.57-.97-.85-.5-1.75-.94-2.7-1.19-.9-.24-1.82-.25-2.74-.31-.24-.02-.49-.03-.73-.04h0Z"/>
          <path class="cls-10" d="m829.51,228.57c-.14,0-.29,0-.43,0-.24.02-.49.07-.72.14-1.58.49-2.7,2.03-2.81,3.66-.05.73.08,1.48.45,2.12.56.98,1.65,1.67,2.78,1.66.16,0,.33-.02.49-.05.21-.04.41-.11.6-.2.19-.09.37-.2.52-.34.18-.15.33-.33.48-.5.43-.49.83-1,1.16-1.56.06-.1.11-.21.17-.31.02-.02.05-.04.07-.06.01-.01.03-.03.04-.04.08-.2.17-.39.25-.59.01-.03,0-.06.01-.09,0-.08.01-.15.01-.23,0-.25-.02-.5-.07-.74-.1-.5-.29-.98-.56-1.41-.27-.43-.61-.81-1.06-1.06-.29-.16-.61-.28-.93-.34-.14-.03-.28-.04-.43-.05h0Z"/>
          <path class="cls-10" d="m831.45,242.63c-.08,0-.17.01-.25.03-.2.05-.4.11-.58.21-.47.26-.81.7-.98,1.21-.13.41-.15.83-.15,1.26,0,.29,0,.59.04.88.03.23.09.45.16.67.1.3.22.59.37.88.24.48.54.92.82,1.37.24.39.66.6,1.08.62.26,0,.51-.06.75-.21.39-.24.6-.65.62-1.08,0-.26-.06-.52-.21-.75-.22-.34-.44-.68-.65-1.03-.16-.27-.31-.55-.39-.85-.04-.15-.04-.31-.05-.46,0-.13,0-.26,0-.39.5-.25.79-.82.66-1.39-.13-.59-.66-.99-1.25-.98h0Z"/>
          <path class="cls-10" d="m843.37,235.85c-.11,0-.22,0-.32.02-.12.02-.22.05-.34.09-.24.09-.44.23-.65.38-.35.26-.53.66-.51,1.06,0,.24.09.48.24.69.32.44.87.6,1.36.46.03.04.07.09.1.13.21.28.37.58.47.92.07.25.11.51.15.77.03.22.07.44.09.67.02.25.02.5.03.75,0,.18.02.35.04.53,0,.06.01.11.01.17,0,0,0,.02,0,.03,0,.01,0,.03-.01.04-.02.04-.04.09-.06.13-.06.13-.14.26-.21.38-.37.63-.16,1.44.47,1.81.63.37,1.44.16,1.81-.47.25-.42.48-.87.59-1.35.04-.2.06-.41.05-.62,0-.18-.03-.35-.05-.53-.01-.11-.01-.22-.02-.33-.01-.28-.02-.55-.06-.83-.03-.27-.08-.54-.13-.8-.08-.48-.19-.96-.36-1.41-.14-.37-.33-.72-.56-1.06-.17-.26-.37-.5-.57-.73-.14-.16-.28-.32-.45-.46-.31-.26-.7-.43-1.11-.45h0Z"/>
          <path class="cls-10" d="m842.7,236.12c-.32.02-.63.16-.86.42-.21.24-.4.5-.64.72-.25.24-.53.45-.8.66-.2.16-.39.32-.58.49-.69.62-1.29,1.35-2.06,1.89-.42.29-.89.51-1.34.74-.85.44-1.72.83-2.64,1.12-.34.11-.68.2-1.02.28-.16.04-.31.07-.47.1-.28.07-.56.17-.84.23-.63.12-1.07.67-1.07,1.28,0,.09,0,.18.02.27.12.63.67,1.07,1.29,1.07.09,0,.18,0,.27-.02.15-.03.29-.06.44-.1.17-.05.34-.11.52-.15.22-.05.44-.1.67-.15.34-.09.68-.18,1.02-.29,1.06-.34,2.08-.81,3.05-1.34.55-.3,1.11-.58,1.62-.95.48-.36.92-.77,1.34-1.2.3-.3.59-.61.9-.9.46-.42.96-.78,1.41-1.2.12-.12.24-.23.35-.36.15-.17.3-.36.45-.53.46-.52.41-1.31-.12-1.77-.26-.23-.59-.33-.91-.31h0Z"/>
        </g>
      </g>
    </g>
    <line class="cls-9" x1="941.01" y1="237.42" x2="941.01" y2="276.53"/>
  </g>
</svg>